<svg viewBox="0 0 200 200" fill="none" xmlns="http://www.w3.org/2000/svg">
  <path d="M100.467 26.4004C89.3758 26.397 78.4943 29.4253 68.9991 35.158C59.5038 40.8907 51.7561 49.1097 46.5935 58.9266C41.4308 68.7434 39.0495 79.7846 39.7072 90.8567C40.3648 101.929 44.0362 112.61 50.3246 121.747C51.6406 123.699 59.6848 132.438 59.6848 132.438L100.275 173.739V148.142H100.467C116.447 147.893 131.688 141.37 142.9 129.982C154.113 118.593 160.397 103.253 160.397 87.2713C160.397 71.2897 154.113 55.949 142.9 44.5606C131.688 33.1722 116.447 26.6495 100.467 26.4004ZM100.467 121.629H100.275V136.076L75.6104 110.938C69.514 104.57 66.1129 96.0941 66.1171 87.2787C66.1171 86.1844 66.1171 85.1345 66.265 84.0699C66.8841 77.4375 69.4174 71.128 73.5568 65.909C77.6961 60.6901 83.2631 56.0717 89.5803 54.6736C95.8974 52.5606 102.693 52.3291 109.139 54.0072C115.585 55.6854 120.803 59.2009 125.89 64.126C130.375 69.0512 133.332 75.1736 134.401 81.7484C135.47 88.3233 134.605 95.0672 131.912 101.16C129.218 107.252 124.812 112.43 119.23 116.064C113.647 119.698 107.129 121.632 100.467 121.629Z" fill="#255FE5"/>
</svg>